<svg width="25" height="25" viewBox="0 0 25 25" fill="none" xmlns="http://www.w3.org/2000/svg">
<rect width="25" height="25" rx="12.5" fill="#FAD532"/>
<path fill-rule="evenodd" clip-rule="evenodd" d="M12.5 5.25C4.75 5.25 4.75 5.22904 4.75 12.9895C4.75 20.75 4.75 20.75 12.5 20.75C20.25 20.75 12.625 20.75 12.625 20.75L14.4472 19.6559H10.5853C10.5853 19.4721 10.5722 19.2161 10.5722 18.5233C8.625 18.8812 8.12125 18.0492 7.96625 17.6139C7.87906 17.3914 7.50125 16.7045 7.17188 16.5207C6.90062 16.3756 6.51313 16.0176 7.16219 16.0079C7.7725 15.9983 8.20844 16.5691 8.35375 16.8012C9.05125 17.9718 10.1653 17.6429 10.6109 17.4398C10.6788 16.9367 10.8822 16.5981 11.105 16.4046C9.38063 16.2111 7.57875 15.5436 7.57875 12.5832C7.57875 11.7415 7.87906 11.045 8.37313 10.5032C8.29563 10.3097 8.02438 9.51641 8.45063 8.45222C8.45063 8.45222 9.09969 8.24906 10.5819 9.24553C11.2019 9.0714 11.8606 8.98432 12.5194 8.98432C13.1781 8.98432 13.8369 9.0714 14.4569 9.24553C15.9391 8.23939 16.5881 8.45222 16.5881 8.45222C17.0144 9.51641 16.7431 10.3097 16.6656 10.5032C17.1597 11.045 17.46 11.7318 17.46 12.5832C17.46 15.5532 15.6484 16.2111 13.9241 16.4046C14.205 16.6464 14.4472 17.1108 14.4472 17.8364C14.4472 18.8716 14.4472 19.3947 14.4472 19.6559L12.625 20.75C20.25 20.75 20.25 20.729 20.25 12.9895C20.25 20.729 20.25 5.25 20.25 12.9895C20.25 5.25 20.25 5.25 12.5 5.25Z" fill="#F8F8F8"/>
</svg>
