<svg width="35" height="35" viewBox="0 0 35 35" fill="none" xmlns="http://www.w3.org/2000/svg">
<rect x="0.5" y="0.5" width="34" height="34" rx="15.5" fill="#333333" stroke="#FAD532"/>
<path fill-rule="evenodd" clip-rule="evenodd" d="M17.5004 7.34998C6.65039 7.34998 6.65039 7.32064 6.65039 18.1853C6.65039 29.05 6.65039 29.05 17.5004 29.05C28.3504 29.05 17.6754 29.05 17.6754 29.05L20.2265 27.5182H14.8198C14.8198 27.2609 14.8015 26.9026 14.8015 25.9326C12.0754 26.4337 11.3701 25.2689 11.1531 24.6594C11.0311 24.3479 10.5021 23.3863 10.041 23.1289C9.66127 22.9258 9.11877 22.4246 10.0275 22.4111C10.8819 22.3975 11.4922 23.1967 11.6956 23.5217C12.6721 25.1605 14.2318 24.7001 14.8557 24.4156C14.9506 23.7113 15.2355 23.2373 15.5474 22.9664C13.1333 22.6955 10.6106 21.761 10.6106 17.6165C10.6106 16.4381 11.0311 15.4629 11.7228 14.7044C11.6143 14.4336 11.2345 13.3229 11.8313 11.8331C11.8313 11.8331 12.74 11.5487 14.815 12.9437C15.683 12.6999 16.6053 12.578 17.5275 12.578C18.4498 12.578 19.372 12.6999 20.24 12.9437C22.3151 11.5351 23.2238 11.8331 23.2238 11.8331C23.8205 13.3229 23.4408 14.4336 23.3323 14.7044C24.024 15.4629 24.4444 16.4246 24.4444 17.6165C24.4444 21.7745 21.9082 22.6955 19.4941 22.9664C19.8874 23.305 20.2265 23.9551 20.2265 24.9709C20.2265 26.4202 20.2265 27.1525 20.2265 27.5182L17.6754 29.05C28.3504 29.05 28.3504 29.0206 28.3504 18.1853C28.3504 29.0206 28.3504 7.34998 28.3504 18.1853C28.3504 7.34998 28.3504 7.34998 17.5004 7.34998Z" fill="#FAD532"/>
</svg>
