<svg width="25" height="25" viewBox="0 0 25 25" fill="none" xmlns="http://www.w3.org/2000/svg">
<rect width="25" height="25" rx="12.5" fill="#FAD532"/>
<path d="M17.15 4.75H7.85C6.13792 4.75 4.75 6.13792 4.75 7.85V17.15C4.75 18.8621 6.13792 20.25 7.85 20.25H17.15C18.8621 20.25 20.25 18.8621 20.25 17.15V7.85C20.25 6.13792 18.8621 4.75 17.15 4.75Z" fill="#F8F8F8"/>
<path d="M16.7353 6.5H8.26471C7.29009 6.5 6.5 7.29009 6.5 8.26471V16.7353C6.5 17.7099 7.29009 18.5 8.26471 18.5H16.7353C17.7099 18.5 18.5 17.7099 18.5 16.7353V8.26471C18.5 7.29009 17.7099 6.5 16.7353 6.5Z" fill="#FAD532"/>
<path d="M12.5 15.25C14.0188 15.25 15.25 14.0188 15.25 12.5C15.25 10.9812 14.0188 9.75 12.5 9.75C10.9812 9.75 9.75 10.9812 9.75 12.5C9.75 14.0188 10.9812 15.25 12.5 15.25Z" fill="#F8F8F8"/>
<path d="M16 9.75C16.4142 9.75 16.75 9.41421 16.75 9C16.75 8.58579 16.4142 8.25 16 8.25C15.5858 8.25 15.25 8.58579 15.25 9C15.25 9.41421 15.5858 9.75 16 9.75Z" fill="#F8F8F8"/>
<path d="M12.5 14.25C13.4665 14.25 14.25 13.4665 14.25 12.5C14.25 11.5335 13.4665 10.75 12.5 10.75C11.5335 10.75 10.75 11.5335 10.75 12.5C10.75 13.4665 11.5335 14.25 12.5 14.25Z" fill="#FAD532"/>
</svg>
