<svg width="35" height="35" viewBox="0 0 35 35" fill="none" xmlns="http://www.w3.org/2000/svg">
<rect x="0.5" y="0.5" width="34" height="34" rx="15.5" fill="#333333" stroke="#FAD532"/>
<path d="M24.0104 6.65002H10.9904C8.59347 6.65002 6.65039 8.59311 6.65039 10.99V24.01C6.65039 26.4069 8.59347 28.35 10.9904 28.35H24.0104C26.4073 28.35 28.3504 26.4069 28.3504 24.01V10.99C28.3504 8.59311 26.4073 6.65002 24.0104 6.65002Z" fill="#FAD532"/>
<path d="M23.429 9.09998H11.5702C10.2057 9.09998 9.09961 10.2061 9.09961 11.5706V23.4294C9.09961 24.7939 10.2057 25.9 11.5702 25.9H23.429C24.7935 25.9 25.8996 24.7939 25.8996 23.4294V11.5706C25.8996 10.2061 24.7935 9.09998 23.429 9.09998Z" fill="#333333"/>
<path d="M17.5004 21.35C19.6267 21.35 21.3504 19.6263 21.3504 17.5C21.3504 15.3737 19.6267 13.65 17.5004 13.65C15.3741 13.65 13.6504 15.3737 13.6504 17.5C13.6504 19.6263 15.3741 21.35 17.5004 21.35Z" fill="#FAD532"/>
<path d="M22.3996 13.65C22.9795 13.65 23.4496 13.1799 23.4496 12.6C23.4496 12.0201 22.9795 11.55 22.3996 11.55C21.8197 11.55 21.3496 12.0201 21.3496 12.6C21.3496 13.1799 21.8197 13.65 22.3996 13.65Z" fill="#FAD532"/>
<path d="M17.4998 19.95C18.8529 19.95 19.9498 18.8531 19.9498 17.5C19.9498 16.147 18.8529 15.05 17.4998 15.05C16.1467 15.05 15.0498 16.147 15.0498 17.5C15.0498 18.8531 16.1467 19.95 17.4998 19.95Z" fill="#333333"/>
</svg>
