<svg width="35" height="35" viewBox="0 0 35 35" fill="none" xmlns="http://www.w3.org/2000/svg">
<rect x="0.5" y="0.5" width="34" height="34" rx="15.5" fill="#333333" stroke="#FAD532"/>
<path d="M24.0104 6.65002H10.9904C8.59347 6.65002 6.65039 8.59311 6.65039 10.99V24.01C6.65039 26.4069 8.59347 28.35 10.9904 28.35H24.0104C26.4073 28.35 28.3504 26.4069 28.3504 24.01V10.99C28.3504 8.59311 26.4073 6.65002 24.0104 6.65002Z" fill="#FAD532"/>
<path d="M11.3748 12.6C12.2447 12.6 12.9498 11.8948 12.9498 11.025C12.9498 10.1551 12.2447 9.44995 11.3748 9.44995C10.505 9.44995 9.7998 10.1551 9.7998 11.025C9.7998 11.8948 10.505 12.6 11.3748 12.6Z" fill="#333333"/>
<path d="M9.7998 14.7H12.9498V24.85H9.7998V14.7Z" fill="#333333"/>
<path d="M15.4004 14.7H18.5504V24.85H15.4004V14.7Z" fill="#333333"/>
<path d="M18.5498 16.1C18.5498 16.1 19.3811 14.35 21.667 14.35C23.9529 14.35 25.1998 16.975 25.1998 18.725C25.1998 20.475 25.1998 24.85 25.1998 24.85H22.0498V18.725C22.0498 18.725 21.667 16.975 20.2123 17.1937C18.7576 17.4125 18.5498 18.725 18.5498 18.725V16.1Z" fill="#333333"/>
</svg>
