<svg width="25" height="25" viewBox="0 0 25 25" fill="none" xmlns="http://www.w3.org/2000/svg">
<rect width="25" height="25" rx="12.5" fill="#FAD532"/>
<path d="M17.15 4.75H7.85C6.13792 4.75 4.75 6.13792 4.75 7.85V17.15C4.75 18.8621 6.13792 20.25 7.85 20.25H17.15C18.8621 20.25 20.25 18.8621 20.25 17.15V7.85C20.25 6.13792 18.8621 4.75 17.15 4.75Z" fill="#F8F8F8"/>
<path d="M8.125 9C8.74632 9 9.25 8.49632 9.25 7.875C9.25 7.25368 8.74632 6.75 8.125 6.75C7.50368 6.75 7 7.25368 7 7.875C7 8.49632 7.50368 9 8.125 9Z" fill="#FAD532"/>
<path d="M7 10.5H9.25V17.75H7V10.5Z" fill="#FAD532"/>
<path d="M11 10.5H13.25V17.75H11V10.5Z" fill="#FAD532"/>
<path d="M13.25 11.5C13.25 11.5 13.8438 10.25 15.4766 10.25C17.1094 10.25 18 12.125 18 13.375C18 14.625 18 17.75 18 17.75H15.75V13.375C15.75 13.375 15.4766 12.125 14.4375 12.2812C13.3984 12.4375 13.25 13.375 13.25 13.375V11.5Z" fill="#FAD532"/>
</svg>
